HIERARCHY
ROOT Hips
{
	OFFSET 0.000000 0.000000 0.000000
	CHANNELS 6 Xposition Yposition Zposition Xrotation Yrotation Zrotation
	JOINT LeftUpLeg_virtual
	{
		OFFSET 0.000000 0.000000 0.000000
		CHANNELS 3 Xrotation Yrotation Zrotation
		JOINT LeftUpLeg
		{
			OFFSET 11.394100 -6.187798 -0.413800
			CHANNELS 3 Xrotation Yrotation Zrotation
			JOINT LeftLeg
			{
				OFFSET 0.430247 -32.302673 3.732800
				CHANNELS 3 Xrotation Yrotation Zrotation
				JOINT LeftFoot
				{
					OFFSET -0.430247 -48.264931 -6.423300
					CHANNELS 3 Xrotation Yrotation Zrotation
					JOINT LeftToeBase
					{
						OFFSET 4.230900 -16.068199 23.438400
						CHANNELS 3 Xrotation Yrotation Zrotation
						JOINT LeftToe_End
						{
							OFFSET 4.510700 0.695400 19.974600
							CHANNELS 3 Xrotation Yrotation Zrotation
							End Site
							{
								OFFSET 0 0 0
							}
						}
					}
				}
			}
		}
	}
	JOINT RightUpLeg_virtual
	{
		OFFSET 0.000000 0.000000 0.000000
		CHANNELS 3 Xrotation Yrotation Zrotation
		JOINT RightUpLeg
		{
			OFFSET -11.333700 -6.187798 -0.413800
			CHANNELS 3 Xrotation Yrotation Zrotation
			JOINT RightLeg
			{
				OFFSET -0.430392 -32.302628 3.733000
				CHANNELS 3 Xrotation Yrotation Zrotation
				JOINT RightFoot
				{
					OFFSET 0.430392 -48.264973 -6.423500
					CHANNELS 3 Xrotation Yrotation Zrotation
					JOINT RightToeBase
					{
						OFFSET -4.230900 -16.068199 23.438400
						CHANNELS 3 Xrotation Yrotation Zrotation
						JOINT RightToe_End
						{
							OFFSET -4.510700 0.695400 19.974600
							CHANNELS 3 Xrotation Yrotation Zrotation
							End Site
							{
								OFFSET 0 0 0
							}
						}
					}
				}
			}
		}
	}
	JOINT Spine_virtual
	{
		OFFSET 0.000000 0.000000 0.000000
		CHANNELS 3 Xrotation Yrotation Zrotation
		JOINT Spine
		{
			OFFSET -0.002400 12.777504 0.315300
			CHANNELS 3 Xrotation Yrotation Zrotation
			JOINT Spine1
			{
				OFFSET -0.002067 5.816869 0.032633
				CHANNELS 3 Xrotation Yrotation Zrotation
				JOINT Spine1_split
				{
					OFFSET -0.002067 5.816869 0.032633
					CHANNELS 3 Xrotation Yrotation Zrotation
					JOINT Spine2
					{
						OFFSET -0.002067 5.816869 0.032633
						CHANNELS 3 Xrotation Yrotation Zrotation
						JOINT Neck_virtual
						{
							OFFSET 0.000000 0.000000 0.000000
							CHANNELS 3 Xrotation Yrotation Zrotation
							JOINT Neck
							{
								OFFSET -0.003700 21.199493 -0.826900
								CHANNELS 3 Xrotation Yrotation Zrotation
								JOINT Head
								{
									OFFSET 0.000000 20.442200 4.834800
									CHANNELS 3 Xrotation Yrotation Zrotation
									JOINT HeadTop_End
									{
										OFFSET 0.000000 34.668396 4.968400
										CHANNELS 3 Xrotation Yrotation Zrotation
										End Site
										{
											OFFSET 0 0 0
										}
									}
								}
							}
						}
						JOINT LeftShoulder_virtual
						{
							OFFSET 0.000000 0.000000 0.000000
							CHANNELS 3 Xrotation Yrotation Zrotation
							JOINT LeftShoulder
							{
								OFFSET 3.288150 8.794197 -1.372250
								CHANNELS 3 Xrotation Yrotation Zrotation
								JOINT LeftShoulder_split
								{
									OFFSET 3.288150 8.794197 -1.372250
									CHANNELS 3 Xrotation Yrotation Zrotation
									JOINT LeftArm
									{
										OFFSET 11.953299 -2.279007 -0.146200
										CHANNELS 3 Xrotation Yrotation Zrotation
										JOINT LeftForeArm
										{
											OFFSET 18.448900 0.000000 0.000000
											CHANNELS 3 Xrotation Yrotation Zrotation
											JOINT LeftHand
											{
												OFFSET 29.527798 0.000000 0.000000
												CHANNELS 3 Xrotation Yrotation Zrotation
												End Site
												{
													OFFSET 0 0 0
												}
											}
										}
									}
								}
							}
						}
						JOINT RightShoulder_virtual
						{
							OFFSET 0.000000 0.000000 0.000000
							CHANNELS 3 Xrotation Yrotation Zrotation
							JOINT RightShoulder
							{
								OFFSET -3.249400 8.794197 -1.372250
								CHANNELS 3 Xrotation Yrotation Zrotation
								JOINT RightShoulder_split
								{
									OFFSET -3.249400 8.794197 -1.372250
									CHANNELS 3 Xrotation Yrotation Zrotation
									JOINT RightArm
									{
										OFFSET -11.953299 -2.279007 -0.146200
										CHANNELS 3 Xrotation Yrotation Zrotation
										JOINT RightForeArm
										{
											OFFSET -18.448900 0.000000 0.000000
											CHANNELS 3 Xrotation Yrotation Zrotation
											JOINT RightHand
											{
												OFFSET -29.527802 0.000000 0.000000
												CHANNELS 3 Xrotation Yrotation Zrotation
												End Site
												{
													OFFSET 0 0 0
												}
											}
										}
									}
								}
							}
						}
					}
				}
			}
		}
	}
}
MOTION
Frames: 4
Frame Time: 0.03333333
-2.778353 92.317787 -2.415138 0.000000 0.000000 0.000000 -0.209277 -46.115398 2.826065 -37.910808 4.620558 15.502142 22.417251 -5.494023 5.606310 11.738723 -5.231104 -16.226615 -2.075774 1.325098 1.222331 0.000000 0.000000 0.000000 -1.712706 -45.215292 2.740959 -15.091926 -8.812709 -18.122831 31.295210 -7.911476 -7.032542 -11.406345 -10.965786 28.673725 -1.526675 -0.504325 0.393201 0.000000 0.000000 0.000000 -1.180560 -45.882940 2.593260 6.565000 2.572008 0.322984 0.449419 2.425171 -1.595275 1.096390 -1.330172 0.920419 0.000000 0.000000 0.000000 -0.603452 1.991919 -1.417230 -17.205062 -2.196480 19.501792 -1.237658 17.674076 -17.099119 0.000000 0.000000 0.000000 -0.411969 1.829845 -1.308897 -7.371188 -7.635976 -13.845322 -5.485779 -2.507856 -2.895703 4.633085 -4.403103 -30.326197 43.989058 -38.908856 17.425636 0.000000 0.000000 0.000000 -0.803512 1.664107 -1.218833 -1.649830 14.905187 -18.891566 -6.136486 2.932068 -0.254797 -73.166776 10.772800 18.310081 -75.880581 34.148204 55.665823 0.000000 0.000000 0.000000 
-1.942122 91.895653 -2.610394 0.000000 0.000000 0.000000 -0.652940 -48.179120 2.974632 -37.758385 5.021942 15.966334 23.877797 -4.659487 4.682698 10.474829 -4.670151 -15.797386 -1.372728 1.302713 0.830384 0.000000 0.000000 0.000000 -1.910925 -47.155961 2.965076 -18.054557 -7.956648 -19.200796 33.231852 -6.714334 -7.129577 -10.994758 -10.674771 28.523027 -0.839735 -0.544741 0.234715 0.000000 0.000000 0.000000 -1.774515 -47.985665 2.527970 7.109372 2.743674 0.576118 1.153325 2.435740 -1.338379 0.981468 -1.289505 1.045857 0.000000 0.000000 0.000000 -0.042249 2.011127 -1.188843 -17.518076 1.442844 19.507232 0.553576 20.848362 -16.658013 0.000000 0.000000 0.000000 0.274032 1.806023 -1.164319 -7.009329 -7.227491 -13.200812 -5.715080 -2.762720 -3.646502 4.094916 -3.213633 -30.699679 44.224450 -40.080759 18.205186 0.000000 0.000000 0.000000 -0.232121 1.680037 -0.977244 -2.558352 15.252238 -13.015511 -5.314497 3.441805 -0.111509 -65.705136 12.376727 18.990737 -78.736529 41.037115 60.590472 0.000000 0.000000 0.000000 
-1.197297 91.419395 -2.813889 0.000000 0.000000 0.000000 -0.930853 -50.342797 3.179264 -37.804793 5.296803 16.498428 25.605044 -3.930239 3.837623 9.118004 -4.139532 -15.492976 -0.781900 1.303762 0.475289 0.000000 0.000000 0.000000 -2.025075 -49.158432 3.224028 -21.143663 -7.007278 -20.174043 35.251016 -5.422010 -7.228458 -10.551111 -10.097488 28.540854 -0.282333 -0.515494 -0.062114 0.000000 0.000000 0.000000 -2.080636 -50.100045 2.604649 7.615565 2.884777 0.772445 1.905900 2.456250 -1.180690 1.030604 -1.384474 1.071049 0.000000 0.000000 0.000000 0.566257 2.042924 -1.063549 -18.169722 4.839181 19.168590 1.886070 23.116832 -15.913303 0.000000 0.000000 0.000000 1.024241 1.796072 -1.093934 -6.692495 -6.972830 -12.494961 -6.025141 -2.979305 -4.532520 3.433207 -3.005837 -30.858112 43.353417 -40.190223 18.005400 0.000000 0.000000 0.000000 0.424964 1.699408 -0.831135 -3.551074 15.619987 -7.100057 -4.345551 4.224075 0.225659 -57.328981 13.454379 19.145864 -81.514298 48.095344 64.256610 0.000000 0.000000 0.000000 
-0.543655 90.898537 -2.939964 0.000000 0.000000 0.000000 -1.026413 -52.413560 3.412435 -38.055116 5.373119 17.034172 27.523432 -3.385161 3.122587 7.775427 -3.774441 -15.353379 -0.436413 1.309068 0.216173 0.000000 0.000000 0.000000 -2.001526 -51.054441 3.531203 -24.198339 -6.013278 -20.922761 37.180299 -4.133900 -7.318584 -10.286949 -9.381292 28.505313 0.277550 -0.422849 -0.394291 0.000000 0.000000 0.000000 -2.058566 -52.088122 2.833557 8.050396 2.957083 0.902215 2.645627 2.475208 -1.107596 1.052556 -1.523026 1.059775 0.000000 0.000000 0.000000 1.182598 2.065522 -1.011791 -19.074920 7.993850 18.557907 2.887282 24.636518 -15.014556 0.000000 0.000000 0.000000 1.766716 1.780466 -1.074092 -6.430362 -6.919861 -11.738105 -6.390732 -3.093412 -5.420509 2.602897 -3.533138 -30.792286 41.489844 -39.406756 16.928308 0.000000 0.000000 0.000000 1.124153 1.720353 -0.760278 -4.529704 16.028156 -1.452842 -3.609688 4.598160 0.548663 -48.826710 14.172921 19.041958 -82.622312 54.935280 65.192393 0.000000 0.000000 0.000000 
